# xmcd
#
# Track frame offsets: 
#        150
#        18242
#        46592
#        72268
#        96150
#        118163
#        147694
#        174081
#        201320
#        228270
#
# Disc length: 3083 seconds
#
# Revision: 0
# Processed by: cddbd v1.5.2PL0 Copyright (c) Steve Scherf et al.
# Submitted via: ExactAudioCopy v0.90b4
#
DISCID=840c090a
DTITLE=Little Bill and The Blue Notes - Live at Grinders Vol. 1
DYEAR=2010
DGENRE=Left Coast Blues
TTITLE0=This Little Girl of Mine
TTITLE1=I Got a Woman
TTITLE2=Georgia
TTITLE3=Messin' With The Kid
TTITLE4=Flip, Flop and Fly
TTITLE5=Never Been to Mississippi
TTITLE6=Train Train
TTITLE7=Sweet Home Chicago
TTITLE8=Unchain My Heart
TTITLE9=Guitar Shorty
EXTD=
EXTT0=
EXTT1=
EXTT2=
EXTT3=
EXTT4=
EXTT5=
EXTT6=
EXTT7=
EXTT8=
EXTT9=
PLAYORDER=
